<svg width="3842" height="983" viewBox="0 0 3842 983" fill="none" xmlns="http://www.w3.org/2000/svg">
    <path d="M990 491.5C990 762.95 768.381 983 495 983C221.619 983 0 762.95 0 491.5C0 220.052 221.619 0 495 0C768.381 0 990 220.052 990 491.5ZM70.734 491.5C70.734 724.16 260.684 912.77 495 912.77C729.316 912.77 919.27 724.16 919.27 491.5C919.27 258.841 729.316 70.233 495 70.233C260.684 70.233 70.734 258.841 70.734 491.5Z" fill="#25AFE1"/>
    <path d="M844.64 789.29C841.36 786.02 837.47 783.43 833.18 781.66C828.89 779.89 824.3 778.98 819.65 778.98C815.01 778.98 810.42 779.89 806.13 781.66C801.84 783.43 797.948 786.02 794.667 789.29C714.78 868.83 608.577 912.62 495.609 912.62C262.408 912.62 72.684 723.71 72.684 491.5C72.684 259.295 262.408 70.382 495.609 70.382C607.149 70.382 712.398 113.238 791.96 191.06C798.686 197.4 807.64 200.859 816.9 200.692C826.16 200.525 834.99 196.745 841.48 190.166C847.97 183.586 851.61 174.733 851.61 165.51C851.62 156.288 847.98 147.432 841.5 140.849C748.631 50.021 625.796 0 495.609 0C223.433 0 2 220.486 2 491.5C2 762.51 223.433 983 495.609 983C627.457 983 751.409 931.87 844.64 839.04C847.92 835.78 850.53 831.9 852.31 827.63C854.09 823.36 855 818.78 855 814.16C855 809.54 854.09 804.97 852.31 800.7C850.53 796.43 847.92 792.55 844.64 789.29Z" fill="#1F4EAD"/>
    <path d="M713.668 246.476C705.751 237.48 694.586 231.995 682.627 231.226C670.667 230.457 658.892 234.468 649.888 242.377C612.42 275.459 546.907 375.631 505.728 483.955C496.215 508.988 487.872 534.666 481.275 560.368C450.141 511.928 424.11 482.843 392.749 447.742C371.171 423.617 346.855 396.409 315.536 356.204C311.91 351.51 307.394 347.576 302.247 344.628C297.1 341.679 291.422 339.774 285.539 339.021C279.655 338.268 273.68 338.682 267.957 340.239C262.233 341.796 256.872 344.465 252.181 348.095C242.705 355.428 236.53 366.224 235.012 378.109C233.495 389.995 236.76 401.996 244.089 411.474C276.717 453.371 302.467 482.168 325.306 507.727C372.772 560.792 406.739 598.816 471.977 729.2C479.739 748.44 500.069 760.44 521.385 756.89C533.223 754.91 543.792 748.32 550.77 738.55C557.748 728.79 560.562 716.65 558.596 704.81C549.626 650.925 565.277 581.898 590.298 516.087C626.541 420.791 680.21 336.161 709.563 310.232C718.561 302.322 724.049 291.161 724.819 279.205C725.589 267.248 721.578 255.475 713.668 246.476Z" fill="#1F4EAD"/>
    <path d="M417.515 184.36C404.558 187.537 408.082 203.485 418.733 198.192C418.923 198.192 480.581 177.472 520.99 241.68C525.955 249.569 532.591 239.36 529.899 233.757C521.391 216.046 484.691 167.881 417.513 184.358L417.515 184.36ZM388.214 317.163C380.571 268.056 401.147 235.505 426.748 228.906C487.684 213.198 517.832 288.318 517.832 327.834C517.832 366.392 490.316 383.371 470.703 381.65C437.749 378.756 422.233 344.286 417.445 317.448C416.275 310.907 407.195 260.563 447.886 260.259C475.597 260.055 491.176 308.015 489.358 326.496C488.169 338.572 482.502 351.185 469.677 350.059C452.579 348.559 446.307 323.984 445.444 314.274C445.254 312.733 441.754 293.69 451.065 295.301C457.487 296.413 459.058 308.367 459.278 309.149C460.173 312.016 460.781 315.619 461.15 318.948C461.541 321.77 460.903 325.009 462.037 328.151C463.149 331.8 466.345 333.854 469.113 334.098C471.375 334.296 475.695 331.982 475.841 328.444C476.134 309.626 468.255 276.141 446.052 278.111C433.566 279.218 426.981 293.51 430.538 316.555C434.003 338.998 445.688 363.674 468.787 365.7C494.182 367.93 504.41 344.774 504.41 327.326C504.41 277.574 470.762 231.913 430.997 245.581C408.161 253.43 394.302 278.29 402.102 318.834C410.187 360.866 435.055 399.432 471.137 398.387C537.195 396.472 532.607 326.111 532.607 326.111C532.607 261.458 480.223 186.656 413.044 215.783C385.349 227.794 363.688 268.29 371.865 317.698C392.609 443.034 483.188 428.636 487.418 427.985L487.735 428.02C502.188 425.928 499.233 409.812 488.658 411.622C428.685 421.891 396.307 369.168 388.214 317.163Z" fill="#1F4EAD"/>
    <path d="M1349.79 678.646C1367.73 688.03 1388.66 692.79 1412.48 692.79C1436.01 692.79 1456.71 688.03 1474.66 678.646C1492.68 669.19 1506.6 655.936 1516.58 638.81C1526.55 621.759 1531.54 602.177 1531.54 580.137V577.456C1531.54 576.042 1529.76 575.297 1526.18 575.297L1516.06 574.776C1512.48 574.776 1510.69 576.414 1510.69 579.616V580.658C1510.69 608.431 1501.61 630.918 1483.52 648.192C1465.35 665.467 1441.67 674.104 1412.48 674.104C1382.63 674.104 1358.65 665.467 1340.7 648.192C1322.76 630.918 1313.75 608.431 1313.75 580.658V421.614C1313.75 393.841 1322.76 371.429 1340.7 354.303C1358.65 337.252 1382.63 328.689 1412.48 328.689C1441.67 328.689 1465.35 337.252 1483.52 354.303C1501.61 371.429 1510.69 393.841 1510.69 421.614V424.816C1510.69 426.9 1512.48 428.017 1516.06 428.017L1526.18 427.496C1529.76 427.496 1531.54 425.709 1531.54 422.135V421.614C1531.54 399.5 1526.55 380.066 1516.58 363.164C1506.6 346.261 1492.68 333.157 1474.66 323.924C1456.71 314.616 1436.01 310 1412.48 310C1388.66 310 1367.73 314.616 1349.79 323.924C1331.84 333.157 1317.85 346.336 1307.87 363.387C1297.89 380.513 1292.9 400.095 1292.9 422.135V579.616C1292.9 602.028 1297.89 621.759 1307.87 638.81C1317.85 655.936 1331.84 669.19 1349.79 678.646ZM1900.93 684.23C1901.98 686.69 1904.14 687.95 1907.34 687.95H1916.94C1919.77 687.95 1921.19 686.69 1921.19 684.23C1921.19 683.11 1921.04 682.29 1920.67 681.55L1837.42 509.699C1836.68 508.582 1837.2 507.688 1838.98 507.018C1862.81 503.072 1881.8 492.573 1895.87 475.522C1909.94 458.397 1916.94 437.25 1916.94 412.009C1916.94 382.448 1907.93 358.622 1889.99 340.454C1872.04 322.286 1848.44 313.202 1819.25 313.202H1688.5C1684.93 313.202 1683.14 314.989 1683.14 318.563V682.59C1683.14 686.17 1684.93 687.95 1688.5 687.95H1698.63C1702.2 687.95 1703.92 686.17 1703.92 682.59V510.741C1703.92 509.326 1704.66 508.582 1706.07 508.582H1814.41C1815.53 508.582 1816.2 509.103 1816.57 510.22L1900.93 684.23ZM1703.92 334.571C1703.92 333.157 1704.66 332.412 1706.07 332.412H1818.73C1841.81 332.412 1860.5 339.709 1874.8 354.303C1889.02 368.897 1896.09 388.107 1896.09 412.009C1896.09 435.091 1889.02 454.003 1874.8 468.597C1860.5 483.117 1841.81 490.414 1818.73 490.414H1706.07C1704.66 490.414 1703.92 489.744 1703.92 488.329V334.571ZM2291.69 333.008C2295.19 333.008 2296.98 331.221 2296.98 327.647V319.605C2296.98 316.106 2295.19 314.319 2291.69 314.319H2068.02C2064.45 314.319 2062.66 316.106 2062.66 319.605V682.59C2062.66 686.17 2064.45 687.95 2068.02 687.95H2291.69C2295.19 687.95 2296.98 686.17 2296.98 682.59V674.625C2296.98 671.051 2295.19 669.264 2291.69 669.264H2085.59C2084.18 669.264 2083.51 668.594 2083.51 667.105V512.305C2083.51 510.89 2084.18 510.22 2085.59 510.22H2232.95C2236.52 510.22 2238.31 508.433 2238.31 504.859V496.296C2238.31 492.797 2236.52 491.009 2232.95 491.009H2085.59C2084.18 491.009 2083.51 490.265 2083.51 488.85V335.093C2083.51 333.678 2084.18 333.008 2085.59 333.008H2291.69ZM2444.33 682.59C2444.33 686.17 2446.12 687.95 2449.7 687.95H2571.88C2604.64 687.95 2630.63 679.167 2649.84 661.52C2669.05 643.948 2678.66 619.823 2678.66 589.221V413.051C2678.66 382.448 2669.05 358.324 2649.84 340.751C2630.63 323.105 2604.64 314.319 2571.88 314.319H2449.7C2446.12 314.319 2444.33 316.106 2444.33 319.605V682.59ZM2467.27 669.264C2465.85 669.264 2465.11 668.594 2465.11 667.105V335.093C2465.11 333.678 2465.85 333.008 2467.27 333.008H2573C2599.28 333.008 2620.06 340.305 2635.17 354.899C2650.29 369.493 2657.81 389.373 2657.81 414.615V588.104C2657.81 613.048 2650.29 632.779 2635.17 647.373C2620.06 661.967 2599.28 669.264 2573 669.264H2467.27ZM3056.61 333.008C3060.18 333.008 3061.9 331.221 3061.9 327.647V319.605C3061.9 316.106 3060.18 314.319 3056.61 314.319H2832.94C2829.36 314.319 2827.57 316.106 2827.57 319.605V682.59C2827.57 686.17 2829.36 687.95 2832.94 687.95H3056.61C3060.18 687.95 3061.9 686.17 3061.9 682.59V674.625C3061.9 671.051 3060.18 669.264 3056.61 669.264H2850.51C2849.09 669.264 2848.42 668.594 2848.42 667.105V512.305C2848.42 510.89 2849.09 510.22 2850.51 510.22H2997.86C3001.44 510.22 3003.22 508.433 3003.22 504.859V496.296C3003.22 492.797 3001.44 491.009 2997.86 491.009H2850.51C2849.09 491.009 2848.42 490.265 2848.42 488.85V335.093C2848.42 333.678 2849.09 333.008 2850.51 333.008H3056.61ZM3381.1 494.732C3381.1 494.36 3381.7 493.988 3382.74 493.616C3400.91 486.17 3414.83 475.299 3424.66 461.077C3434.41 446.855 3439.33 429.804 3439.33 409.849C3439.33 380.661 3429.87 357.43 3411.03 340.156C3392.2 322.956 3366.88 314.319 3335.23 314.319H3214.61C3211.04 314.319 3209.25 316.106 3209.25 319.605V682.59C3209.25 686.17 3211.04 687.95 3214.61 687.95H3338.96C3370.3 687.95 3395.55 678.944 3414.76 660.999C3433.97 643.055 3443.57 618.706 3443.57 588.104C3443.57 565.692 3438.29 546.556 3427.56 530.771C3416.92 514.911 3401.95 503.295 3382.74 495.775C3381.7 495.403 3381.1 495.105 3381.1 494.732ZM3230.1 335.093C3230.1 333.678 3230.77 333.008 3232.18 333.008H3335.23C3360.48 333.008 3380.8 340.081 3396.07 354.303C3411.41 368.599 3419 387.437 3419 410.892C3419 433.304 3411.41 451.397 3396.07 465.098C3380.8 478.798 3360.48 485.648 3335.23 485.648H3232.18C3230.77 485.648 3230.1 484.904 3230.1 483.489V335.093ZM3399.57 646.033C3384.08 661.148 3363.9 668.743 3338.96 668.743H3232.18C3230.77 668.743 3230.1 667.998 3230.1 666.584V506.497C3230.1 505.008 3230.77 504.338 3232.18 504.338H3335.76C3362.11 504.338 3383.19 511.784 3399.05 526.75C3414.83 541.716 3422.8 561.82 3422.8 587.061C3422.8 611.261 3415.05 630.918 3399.57 646.033ZM3598.89 682.59C3598.89 686.17 3600.68 687.95 3604.25 687.95H3815.64C3819.22 687.95 3821 686.17 3821 682.59V674.625C3821 671.051 3819.22 669.264 3815.64 669.264H3621.9C3620.49 669.264 3619.74 668.594 3619.74 667.105V319.605C3619.74 316.106 3617.96 314.319 3614.38 314.319H3604.25C3600.68 314.319 3598.89 316.106 3598.89 319.605V682.59Z" fill="#2289F7" stroke="black" stroke-width="40.0346"/>
    </svg>
    