<svg width="183" height="36" viewBox="0 0 183 36" fill="none" xmlns="http://www.w3.org/2000/svg">
<path d="M33.9688 17.4844C33.9688 26.5884 26.5885 33.9688 17.4844 33.9688C8.38032 33.9688 1 26.5884 1 17.4844C1 8.38031 8.38032 1 17.4844 1C26.5885 1 33.9688 8.38031 33.9688 17.4844ZM3.80236 17.4844C3.80236 25.0408 9.92804 31.1664 17.4844 31.1664C25.0408 31.1664 31.1664 25.0408 31.1664 17.4844C31.1664 9.92804 25.0408 3.80235 17.4844 3.80235C9.92804 3.80235 3.80236 9.92804 3.80236 17.4844Z" fill="#25AFE1"/>
<path d="M27.6909 6.38296C28.2147 5.8132 28.1806 4.92148 27.5684 4.44808C25.3719 2.74944 22.7751 1.62833 20.0163 1.19952C16.7946 0.698758 13.4969 1.16456 10.54 2.53803C7.58314 3.9115 5.09993 6.13093 3.40442 8.91569C1.70893 11.7004 0.877276 14.9255 1.01464 18.1829C1.15201 21.4402 2.25222 24.5837 4.17615 27.2159C6.10009 29.848 8.76134 31.8505 11.8234 32.9702C14.8854 34.0898 18.2106 34.2763 21.3787 33.5061C24.0915 32.8465 26.5848 31.5108 28.6305 29.6333C29.2007 29.11 29.1595 28.2186 28.5897 27.695C28.0199 27.1712 27.138 27.2149 26.5587 27.7282C24.8948 29.2028 22.8907 30.2545 20.7167 30.7831C18.0871 31.4224 15.3272 31.2675 12.7858 30.3383C10.2442 29.409 8.03542 27.7469 6.43855 25.5622C4.84169 23.3775 3.92851 20.7684 3.8145 18.0648C3.70048 15.3611 4.39076 12.6844 5.79802 10.373C7.20529 8.06169 9.2664 6.21955 11.7205 5.07958C14.1748 3.9396 16.912 3.55298 19.5858 3.96861C21.7967 4.31226 23.8822 5.19158 25.6645 6.52085C26.2848 6.98352 27.1673 6.95273 27.6909 6.38296Z" fill="#1F4EAD"/>
<path d="M25.496 11.0867C25.2413 10.7953 24.8824 10.6178 24.4978 10.5929C24.1133 10.568 23.7346 10.6978 23.4452 10.9539C22.2405 12.0252 20.134 15.269 18.8099 18.7768C18.5041 19.5874 18.2358 20.4189 18.0236 21.2512C17.0226 19.6826 16.1856 18.7408 15.1773 17.6041C14.4835 16.8229 13.7017 15.9419 12.6946 14.64C12.578 14.488 12.4328 14.3605 12.2673 14.265C12.1018 14.1695 11.9193 14.1079 11.73 14.0835C11.5408 14.0591 11.3488 14.0725 11.1648 14.1229C10.9807 14.1734 10.8084 14.2598 10.6575 14.3773C10.3528 14.6148 10.1542 14.9644 10.1054 15.3492C10.0567 15.7342 10.1616 16.1227 10.3973 16.4297C11.4464 17.7864 12.2743 18.719 13.0087 19.5466C14.535 21.265 15.627 22.4963 17.7246 26.7185C17.9743 27.3416 18.628 27.7301 19.3133 27.615C19.694 27.5511 20.0338 27.3375 20.2581 27.0212C20.4825 26.705 20.573 26.312 20.5098 25.9286C20.2214 24.1837 20.7246 21.9484 21.5291 19.8173C22.6945 16.7314 24.4202 13.9909 25.3639 13.1512C25.6533 12.8951 25.8297 12.5337 25.8544 12.1465C25.8792 11.7593 25.7503 11.3781 25.496 11.0867Z" fill="#1F4EAD"/>
<path d="M15.9771 9.07052C15.5605 9.17341 15.6738 9.68977 16.0163 9.51845C16.0224 9.51845 18.0049 8.84746 19.3042 10.9267C19.4638 11.1821 19.6772 10.8515 19.5906 10.6701C19.3171 10.0966 18.1371 8.537 15.9771 9.07052ZM15.035 13.371C14.7892 11.7808 15.4509 10.7267 16.2739 10.5131C18.2333 10.0043 19.2026 12.4369 19.2026 13.7165C19.2026 14.9651 18.3179 15.515 17.6873 15.4593C16.6277 15.3655 16.1288 14.2494 15.9748 13.3802C15.9372 13.1684 15.6453 11.5382 16.9537 11.5283C17.8446 11.5217 18.3455 13.0748 18.2871 13.6732C18.2489 14.0643 18.0667 14.4727 17.6543 14.4362C17.1045 14.3877 16.9029 13.5919 16.8751 13.2775C16.869 13.2275 16.7564 12.6109 17.0559 12.6631C17.2623 12.699 17.3129 13.0861 17.32 13.1115C17.3487 13.2044 17.3683 13.321 17.3801 13.4288C17.3927 13.5202 17.3721 13.6251 17.4086 13.7269C17.4445 13.845 17.5472 13.9115 17.6361 13.9194C17.7089 13.9258 17.8478 13.8509 17.8525 13.7363C17.8619 13.1269 17.6086 12.0426 16.8947 12.1064C16.4932 12.1422 16.2815 12.6051 16.3958 13.3513C16.5072 14.078 16.883 14.8771 17.6257 14.9427C18.4422 15.015 18.771 14.2652 18.771 13.7001C18.771 12.089 17.6892 10.6104 16.4106 11.053C15.6763 11.3072 15.2308 12.1122 15.4816 13.4251C15.7414 14.7862 16.5411 16.0351 17.7013 16.0012C19.8253 15.9392 19.6777 13.6608 19.6777 13.6608C19.6777 11.5672 17.9934 9.14487 15.8333 10.0881C14.9429 10.477 14.2464 11.7884 14.5093 13.3883C15.1763 17.447 18.0887 16.9808 18.2248 16.9596L18.2349 16.9609C18.6997 16.8931 18.6046 16.3712 18.2646 16.4298C16.3362 16.7624 15.2952 15.055 15.035 13.371Z" fill="#1F4EAD"/>
<path d="M54.344 9.104C52.0187 9.104 50.088 9.936 48.552 11.6C47.016 13.264 46.248 15.3973 46.248 18C46.248 20.6027 47.016 22.736 48.552 24.4C50.088 26.064 52.0187 26.896 54.344 26.896C55.6667 26.896 56.7973 26.7573 57.736 26.48C58.6747 26.2027 59.816 25.7013 61.16 24.976L61.48 25.296V28.752C59.1547 29.7973 56.776 30.32 54.344 30.32C50.9947 30.32 48.1467 29.168 45.8 26.864C43.4747 24.56 42.312 21.6053 42.312 18C42.312 14.3947 43.4747 11.44 45.8 9.136C48.1467 6.832 50.9947 5.68 54.344 5.68C56.84 5.68 59.2187 6.20267 61.48 7.248V10.704L61.16 11.024C59.816 10.2987 58.6747 9.79733 57.736 9.52C56.7973 9.24266 55.6667 9.104 54.344 9.104ZM75.6295 18.128C76.3335 18.576 77.1015 19.4613 77.9335 20.784C78.7868 22.0853 79.7255 23.6853 80.7495 25.584C81.7735 27.4827 82.5522 28.848 83.0855 29.68V30H78.9895C78.5202 29.2533 77.7735 27.888 76.7495 25.904C75.7468 23.92 74.8402 22.3307 74.0295 21.136C73.2402 19.9413 72.5042 19.28 71.8215 19.152H69.4535V29.68L69.1335 30H66.0295L65.7095 29.68V6.32L66.0295 6H72.3975C74.7655 6 76.6535 6.608 78.0615 7.824C79.4695 9.01867 80.1735 10.608 80.1735 12.592C80.1735 13.9573 79.7682 15.12 78.9575 16.08C78.1682 17.0187 77.0588 17.7013 75.6295 18.128ZM69.4535 15.92H72.2695C73.5068 15.92 74.4775 15.6213 75.1815 15.024C75.8855 14.4053 76.2375 13.5947 76.2375 12.592C76.2375 11.568 75.8855 10.7573 75.1815 10.16C74.4775 9.54133 73.5068 9.232 72.2695 9.232H69.4535V15.92ZM99.218 27.088V29.68L98.898 30H85.842L85.522 29.68V6.32L85.842 6H98.258L98.578 6.32V8.912L98.258 9.232H89.266V15.984H96.978L97.298 16.304V18.896L96.978 19.216H89.266V26.768H98.898L99.218 27.088ZM103.123 6H110.963C114.313 6 117.15 7.10933 119.475 9.328C121.822 11.5467 122.995 14.4373 122.995 18C122.995 21.5627 121.822 24.4533 119.475 26.672C117.15 28.8907 114.313 30 110.963 30H103.123L102.803 29.68V6.32L103.123 6ZM106.547 26.768H110.963C113.31 26.768 115.241 25.9573 116.755 24.336C118.291 22.6933 119.059 20.5813 119.059 18C119.059 15.4187 118.291 13.3173 116.755 11.696C115.241 10.0533 113.31 9.232 110.963 9.232H106.547V26.768ZM140.281 27.088V29.68L139.961 30H126.905L126.585 29.68V6.32L126.905 6H139.321L139.641 6.32V8.912L139.321 9.232H130.329V15.984H138.041L138.361 16.304V18.896L138.041 19.216H130.329V26.768H139.961L140.281 27.088ZM155.418 17.328C158.426 18.3093 159.93 20.24 159.93 23.12C159.93 25.4667 159.151 27.2053 157.594 28.336C156.058 29.4453 154.01 30 151.45 30H144.186L143.866 29.68V6.32L144.186 6H150.554C152.879 6 154.756 6.576 156.186 7.728C157.615 8.88 158.33 10.4373 158.33 12.4C158.33 14.7253 157.359 16.368 155.418 17.328ZM154.426 12.528C154.426 11.5253 154.074 10.7253 153.37 10.128C152.666 9.53067 151.706 9.232 150.49 9.232H147.61V15.984H150.49C151.727 15.984 152.687 15.6747 153.37 15.056C154.074 14.4373 154.426 13.5947 154.426 12.528ZM147.61 26.768H151.322C154.458 26.768 156.026 25.5307 156.026 23.056C156.026 21.7547 155.578 20.7947 154.682 20.176C153.807 19.536 152.602 19.216 151.066 19.216H147.61V26.768ZM176.514 27.088V29.68L176.194 30H163.842L163.522 29.68V6.32L163.842 6H166.946L167.266 6.32V26.768H176.194L176.514 27.088Z" fill="black"/>
</svg>
